<svg xmlns="http://www.w3.org/2000/svg" viewBox="0 0 3333 3333" shape-rendering="geometricPrecision" text-rendering="geometricPrecision" image-rendering="optimizeQuality" fill-rule="evenodd" clip-rule="evenodd"><path d="M3021 0H313C141 0 0 141 0 312v2708c0 172 141 312 313 312h2708c172 0 313-141 313-312V312c0-172-141-312-313-312zM1177 2795c125-112 211-271 253-434 17-65 86-327 86-327 45 86 177 158 316 158 416 0 715-382 715-857 0-456-372-796-849-796-595 0-910 399-910 834 0 202 108 454 280 534 26 13 40 7 46-19 4-19 28-113 39-156 3-14 2-26-9-40-57-69-103-196-103-314 0-304 230-598 622-598 339 0 575 230 575 561 0 373-188 631-433 631-135 0-237-112-204-249 39-164 114-341 114-458 0-106-56-194-175-194-139 0-249 143-249 335 0 122 41 204 41 204s-137 577-162 685c-28 119-17 286-5 395l12 107z"/></svg>